<svg xmlns="http://www.w3.org/2000/svg" viewBox="0 0 320 320" class="w-full h-full max-w-lg max-h-lg">
  <defs>
    <linearGradient id="gradient" x1="0%" y1="0%" x2="100%" y2="100%">
      <stop offset="0" stop-color="#3B82F6"></stop>
      <stop offset="1" stop-color="#8B5CF6"></stop>
    </linearGradient>
    <filter id="shadow" x="-50%" y="-50%" width="200%" height="200%">
      <feGaussianBlur in="SourceAlpha" stdDeviation="3"></feGaussianBlur>
      <feOffset dx="1" dy="3" result="offsetblur"></feOffset>
      <feFlood flood-color="#000000" flood-opacity="0.2"></feFlood>
      <feComposite in2="offsetblur" operator="in"></feComposite>
      <feMerge>
        <feMergeNode></feMergeNode>
        <feMergeNode in="SourceGraphic"></feMergeNode>
      </feMerge>
    </filter>
  </defs>
  <circle cx="160" cy="160" r="150" fill="url(#gradient)" opacity="0.08"></circle>
  <g transform="matrix(1, 0, 0, 1, 105, 74.906227)" filter="url(#shadow)">
    <path d="M0,30 Q0,0 30,0 L80,0 Q110,0 110,30 L110,100 Q110,130 80,130 L30,130 Q0,130 0,100 Z" fill="url(#gradient)" opacity="0.3"></path>
    <path d="M20,25 Q20,5 40,5 L70,5 Q90,5 90,25 L90,105 Q90,125 70,125 L40,125 Q20,125 20,105 Z" fill="url(#gradient)"></path>
    <circle cx="55" cy="40" r="18" fill="#1E293B" opacity="0.7"></circle>
    <circle cx="55" cy="40" r="9" fill="#FFFFFF" opacity="0.15"></circle>
  </g>
  <text x="166.002" y="250" font-family="system-ui, sans-serif" font-size="52" font-weight="900" fill="url(#gradient)" text-anchor="middle" letter-spacing="-1" style="white-space: pre; font-size: 52px;">Avoita</text>
  <text x="160" y="260" font-family="system-ui, sans-serif" font-size="52" font-weight="900" fill="transparent" stroke="url(#gradient)" stroke-width="2" text-anchor="middle" style="white-space: pre;" transform="matrix(1, 0, 0, 1, 6.001702, -62)"><tspan x="160" dy="1em">​</tspan>Avoita<tspan x="160" dy="1em">​</tspan></text>
</svg>